<svg xmlns="http://www.w3.org/2000/svg" viewBox="0 0 48 48" fill="#f59e0b">
  <path d="M42.76 20.16a1.96 1.96 0 0 0-2.18.44l-.44.44c-.82.82-1.66 1.44-2.48 1.86-3.4 1.7-7.38 1.42-10.4-.66a10.96 10.96 0 0 0 2.54-9.2c-.78-4.36-4.18-7.88-8.48-8.78-3.32-.68-6.7.12-9.28 2.22a11 11 0 0 0-4.02 7.62l-.06-.08h-4s0 5.44 5.2 5.94c.28.27.6.53.96 1.56A12.02 12.02 0 0 0 4 33.16c.56 6.08 6 10.86 12.36 10.86h12.2c8.76 0 15.38-6.02 15.38-14v-8c0-.8-.48-1.54-1.24-1.84zM40 30c0 5.8-4.78 10-11.38 10h-12.2c-4.32 0-8-3.18-8.38-7.22-.32-3.44 1.58-6.7 4.74-8.1.56-.24 1.12-.56 1.76-.98.54-.36.88-.94.9-1.58s-.26-1.26-.76-1.66C13.98 19.12 13 17.12 13 15s.94-4.1 2.58-5.44c1.26-1.04 2.8-1.56 4.4-1.56.5 0 1.02.06 1.54.16 2.68.56 4.88 2.84 5.36 5.56.48 2.68-.6 5.34-2.8 6.94-.44.28-.72.72-.82 1.46-.04.58.16 1.16.58 1.58l.2.2c4.3 4.3 10.9 5.34 16.42 2.58.18-.08.36-.18.54-.28v3.84z"/>
  <circle cx="18" cy="12" r="2" fill="#0a0a0a"/>
</svg>
