<svg xmlns="http://www.w3.org/2000/svg" viewBox="0 0 32 32" fill="#f59e0b">
  <path d="M28 14c-.5 0-1 .2-1.4.6l-.3.3c-.5.5-1 .9-1.5 1.2-2.2 1.1-4.7.9-6.6-.4.8-1.8.7-3.9-.4-5.6-.5-.8-1.3-1.5-2.3-1.8-2.1-.4-4.1.2-5.6 1.6-.8.7-1.4 1.7-1.5 2.8H6s0 3 2.5 3.3c.3.3.6.6 1 1 1.6 1.6 2.5 3.7 2.5 6 0 1.8-.7 3.5-2 4.7-.5.5-1.1.9-1.8 1.1H15c4 0 7-3 7-7v-5c0-.4-.3-.8-.8-1zm-2 6c0 3-2.5 5-6 5H10c-2 0-4-1.5-4-3.5s1.5-4 3.5-4.5c.4-.1.8-.3 1.2-.5.3-.2.5-.5.5-.9s-.2-.7-.5-.9C10 14 9.5 13 9.5 12s.5-2 1.5-3c.7-.6 1.6-1 2.5-1 .5 0 1 .1 1.5.3 1.5.4 2.7 1.7 3 3.2s-.4 3-1.7 4c-.3.2-.5.5-.5.9 0 .4.2.7.5.9l.2.2c2 2 5 3 8 2z"/>
  <circle cx="11" cy="9" r="1.5" fill="#0a0a0a"/>
</svg>
